<?xml version="1.0" encoding="utf-8"?>
<?xml-stylesheet type="text/xsl" href="rss1.xsl"?>
<rss version="2.0" xmlns:atom="http://www.w3.org/2005/Atom" xmlns:content="http://purl.org/rss/1.0/modules/content/" xmlns:dc="http://purl.org/dc/elements/1.1/" xmlns:media="http://search.yahoo.com/mrss/">
<channel>
 <title>Getty</title>
 <link>http://www.gettyimg.com/</link>
 <atom:link href="http://www.gettyimg.com/" rel="self" type="application/rss+xml" />

 
                <item>
                <title><![CDATA[【PRORES HD】IU Holssi MASTER ProRes 2160p PCM2.0]]></title>
                <link><![CDATA[https://sharemania.us/threads/iu-holssi-master-prores-2160p-pcm2-0.241735/]]></link>
                <description><![CDATA[<article>
<blockquote class="messageText SelectQuoteContainer ugc baseHtml">
<div style="text-align: center">thumbs will be posted later :&gt;<br>
<br>
<div class="ToggleTriggerAnchor bbCodeSpoilerContainer">
<button type="button" class="button bbCodeSpoilerButton ToggleTrigger Tooltip JsOnly" data-target="> .SpoilerTarget"><span>Spoiler: <span class="SpoilerTitle">Mediainfo</span></span></button>
<div class="SpoilerTarget bbCodeSpoilerText"><b>General</b><br>
Complete name : IU Holssi MASTER ProRes 2160p PCM2.0.mov<br>
Format : MPEG-4<br>
Format profile : QuickTime<br>
Codec ID : qt 2005.03 (qt )<br>
File size : 19.5 GiB<br>
Duration : 4 min 3 s<br>
Overall bit rate mode : Variable<br>
Overall bit rate : 688 Mb/s<br>
Frame rate : 23.976 FPS<br>
Encoded date : 2024-02-17 02:43:20 UTC<br>
Tagged date : 2024-02-16 02:50:01 UTC<br>
Writing library : Apple QuickTime<br>
TIM : 01:00:00:00<br>
TSC : 24000<br>
TSZ : 1001<br>
<br>
<b>Video</b><br>
ID : 1<br>
Format : ProRes<br>
Format version : Version 0<br>
Format profile : 422 HQ<br>
Codec ID : apch<br>
Duration : 4 min 3 s<br>
Bit rate mode : Variable<br>
Bit rate : 687 Mb/s<br>
Width : 3 840 pixels<br>
Height : 2 160 pixels<br>
Display aspect ratio : 16:9<br>
Frame rate mode : Constant<br>
Frame rate : 23.976 (24000/1001) FPS<br>
Color space : YUV<br>
Chroma subsampling : 4:2:2<br>
Scan type : Progressive<br>
Bits/(Pixel*Frame) : 3.453<br>
Stream size : 19.5 GiB (100%)<br>
Writing library : adb0<br>
Language : English<br>
Encoded date : 2024-02-17 02:43:20 UTC<br>
Tagged date : 2024-02-17 02:43:20 UTC<br>
Color primaries : BT.709<br>
Transfer characteristics : BT.709<br>
Matrix coefficients : BT.709<br>
<br>
<b>Audio</b><br>
ID : 2<br>
Format : PCM<br>
Format settings : Little / Signed<br>
Codec ID : sowt<br>
Duration : 4 min 3 s<br>
Bit rate mode : Constant<br>
Bit rate : 1 536 kb/s<br>
Channel(s) : 2 channels<br>
Channel layout : L R<br>
Sampling rate : 48.0 kHz<br>
Bit depth : 16 bits<br>
Stream size : 44.6 MiB (0%)<br>
Language : English<br>
Encoded date : 2024-02-17 02:43:20 UTC<br>
Tagged date : 2024-02-17 02:43:20 UTC<br>
<br>
<b>Other</b><br>
ID : 3<br>
Type : Time code<br>
Format : QuickTime TC<br>
Duration : 4 min 3 s<br>
Frame rate : 23.976 (24000/1001) FPS<br>
Time code of first frame : 01:00:00:00<br>
Time code of last frame : 01:04:03:13<br>
Time code, stripped : Yes<br>
Language : English<br>
Encoded date : 2024-02-17 02:43:20 UTC<br>
Tagged date : 2024-02-17 02:43:20 UTC</div>
</div><br>
<div class="bbCodeBlock bbCodeVfcHH HiddenContent">
<div class="attribution type">Hidden Content:</div>
<blockquote>You must reply before you can see the hidden data contained here.</blockquote>
</div></div>
<div class="messageTextEndMarker">&nbsp;</div>
</blockquote>
</article>]]></description>
                <author><![CDATA[von_3649]]></author>
                </item>

                
                <item>
                <title><![CDATA[【PRORES HD】BABYMONSTER Stuck In The Middle MASTER ProRes 1080p LPCM2.0]]></title>
                <link><![CDATA[https://sharemania.us/threads/babymonster-stuck-in-the-middle-master-prores-1080p-lpcm2-0.241733/]]></link>
                <description><![CDATA[<article>
<blockquote class="messageText SelectQuoteContainer ugc baseHtml">
<div style="text-align: center">Thumbs will be posted later :&gt;<br>
<br>
<br>
<div class="ToggleTriggerAnchor bbCodeSpoilerContainer">
<button type="button" class="button bbCodeSpoilerButton ToggleTrigger Tooltip JsOnly" data-target="> .SpoilerTarget"><span>Spoiler: <span class="SpoilerTitle">MediaInfo</span></span></button>
<div class="SpoilerTarget bbCodeSpoilerText"><b>General</b><br>
Complete name : BABYMONSTER Stuck In The Middle MASTER ProRes 1080p LPCM2.0.mov<br>
Format : MPEG-4<br>
Format profile : QuickTime<br>
Codec ID : qt 2005.03 (qt )<br>
File size : 4.87 GiB<br>
Duration : 4 min 17 s<br>
Overall bit rate mode : Variable<br>
Overall bit rate : 163 Mb/s<br>
Frame rate : 23.976 FPS<br>
Encoded date : 2024-01-31 13:55:21 UTC<br>
Tagged date : 2024-01-31 13:59:56 UTC<br>
Writing library : Apple QuickTime<br>
TIM : 00:00:00:00<br>
TSC : 24000<br>
TSZ : 1001<br>
<b>Video</b><br>
ID : 1<br>
Format : ProRes<br>
Format version : Version 0<br>
Format profile : 422 HQ<br>
Codec ID : apch<br>
Duration : 4 min 17 s<br>
Bit rate mode : Variable<br>
Bit rate : 161 Mb/s<br>
Width : 1 920 pixels<br>
Height : 1 080 pixels<br>
Display aspect ratio : 16:9<br>
Frame rate mode : Constant<br>
Frame rate : 23.976 (24000/1001) FPS<br>
Color space : YUV<br>
Chroma subsampling : 4:2:2<br>
Scan type : Progressive<br>
Bits/(Pixel*Frame) : 3.241<br>
Stream size : 4.83 GiB (99%)<br>
Writing library : adb0<br>
Language : English<br>
Encoded date : 2024-01-31 13:55:21 UTC<br>
Tagged date : 2024-01-31 13:55:21 UTC<br>
Color primaries : BT.709<br>
Transfer characteristics : BT.709<br>
Matrix coefficients : BT.709<br>
<b>Audio</b><br>
ID : 2<br>
Format : PCM<br>
Format settings : Little / Signed<br>
Codec ID : sowt<br>
Duration : 4 min 17 s<br>
Bit rate mode : Constant<br>
Bit rate : 1 536 kb/s<br>
Channel(s) : 2 channels<br>
Channel layout : L R<br>
Sampling rate : 48.0 kHz<br>
Bit depth : 16 bits<br>
Stream size : 47.1 MiB (1%)<br>
Language : English<br>
Encoded date : 2024-01-31 13:55:21 UTC<br>
Tagged date : 2024-01-31 13:55:21 UTC<br>
<b>Other</b><br>
ID : 3<br>
Type : Time code<br>
Format : QuickTime TC<br>
Duration : 4 min 17 s<br>
Frame rate : 23.976 (24000/1001) FPS<br>
Time code of first frame : 00:00:00:00<br>
Time code of last frame : 00:04:17:01<br>
Time code, stripped : Yes<br>
Language : English<br>
Encoded date : 2024-01-31 13:55:21 UTC<br>
Tagged date : 2024-01-31 13:55:21 UTC</div>
</div><br>
<div class="bbCodeBlock bbCodeVfcHH HiddenContent">
<div class="attribution type">Hidden Content:</div>
<blockquote>You must reply before you can see the hidden data contained here.</blockquote>
</div></div>
<div class="messageTextEndMarker">&nbsp;</div>
</blockquote>
</article>]]></description>
                <author><![CDATA[von_3649]]></author>
                </item>

                
                <item>
                <title><![CDATA[【PRORES HD】NMIXX Dash MASTER ProRes 2160p LPCM2.0]]></title>
                <link><![CDATA[https://sharemania.us/threads/nmixx-dash-master-prores-2160p-lpcm2-0.241734/]]></link>
                <description><![CDATA[<article>
<blockquote class="messageText SelectQuoteContainer ugc baseHtml">
<div style="text-align: center">Thumbs will be posted later :&gt;<br>
<br>
<div class="ToggleTriggerAnchor bbCodeSpoilerContainer">
<button type="button" class="button bbCodeSpoilerButton ToggleTrigger Tooltip JsOnly" data-target="> .SpoilerTarget"><span>Spoiler: <span class="SpoilerTitle">Mediainfo</span></span></button>
<div class="SpoilerTarget bbCodeSpoilerText"><b>General</b><br>
Complete name : NMIXX Dash MASTER ProRes 2160p PCM2.0.mov<br>
Format : MPEG-4<br>
Format profile : QuickTime<br>
Codec ID : qt 2005.03 (qt )<br>
File size : 13.8 GiB<br>
Duration : 2 min 47 s<br>
Overall bit rate mode : Variable<br>
Overall bit rate : 706 Mb/s<br>
Frame rate : 23.976 FPS<br>
Encoded date : 2024-01-14 21:57:49 UTC<br>
Tagged date : 2024-01-14 22:04:31 UTC<br>
Writing library : Apple QuickTime<br>
TIM : 00:00:00:00<br>
TSC : 24000<br>
TSZ : 1001<br>
<br>
<b>Video</b><br>
ID : 1<br>
Format : ProRes<br>
Format version : Version 0<br>
Format profile : 422 HQ<br>
Codec ID : apch<br>
Duration : 2 min 47 s<br>
Bit rate mode : Variable<br>
Bit rate : 704 Mb/s<br>
Width : 3 840 pixels<br>
Height : 2 160 pixels<br>
Display aspect ratio : 16:9<br>
Frame rate mode : Constant<br>
Frame rate : 23.976 (24000/1001) FPS<br>
Color space : YUV<br>
Chroma subsampling : 4:2:2<br>
Scan type : Progressive<br>
Bits/(Pixel*Frame) : 3.542<br>
Stream size : 13.8 GiB (100%)<br>
Writing library : adb0<br>
Language : English<br>
Encoded date : 2024-01-14 21:57:49 UTC<br>
Tagged date : 2024-01-14 21:57:49 UTC<br>
Color primaries : BT.709<br>
Transfer characteristics : BT.709<br>
Matrix coefficients : BT.709<br>
<br>
<b>Audio</b><br>
ID : 2<br>
Format : PCM<br>
Format settings : Little / Signed<br>
Codec ID : sowt<br>
Duration : 2 min 47 s<br>
Bit rate mode : Constant<br>
Bit rate : 1 536 kb/s<br>
Channel(s) : 2 channels<br>
Channel layout : L R<br>
Sampling rate : 48.0 kHz<br>
Bit depth : 16 bits<br>
Stream size : 30.7 MiB (0%)<br>
Language : English<br>
Encoded date : 2024-01-14 21:57:49 UTC<br>
Tagged date : 2024-01-14 21:57:49 UTC<br>
<br>
<b>Other</b><br>
ID : 3<br>
Type : Time code<br>
Format : QuickTime TC<br>
Duration : 2 min 47 s<br>
Frame rate : 23.976 (24000/1001) FPS<br>
Time code of first frame : 00:00:00:00<br>
Time code of last frame : 00:02:47:14<br>
Time code, stripped : Yes<br>
Language : English<br>
Encoded date : 2024-01-14 21:57:49 UTC<br>
Tagged date : 2024-01-14 21:57:49 UTC</div>
</div><br>
<div class="bbCodeBlock bbCodeVfcHH HiddenContent">
<div class="attribution type">Hidden Content:</div>
<blockquote>You must reply before you can see the hidden data contained here.</blockquote>
</div></div>
<div class="messageTextEndMarker">&nbsp;</div>
</blockquote>
</article>]]></description>
                <author><![CDATA[von_3649]]></author>
                </item>

                </channel></rss>